<?xml version="1.0" standalone="no"?>
<!DOCTYPE svg PUBLIC "-//W3C//DTD SVG 20010904//EN"
 "http://www.w3.org/TR/2001/REC-SVG-20010904/DTD/svg10.dtd">
<svg version="1.0" xmlns="http://www.w3.org/2000/svg"
 width="895.000000pt" height="658.000000pt" viewBox="0 0 895.000000 658.000000"
 preserveAspectRatio="xMidYMid meet">

<g transform="translate(0.000000,658.000000) scale(0.100000,-0.100000)"
fill="#000000" stroke="none">
<path d="M5209 5225 c-57 -18 -117 -75 -149 -141 -22 -42 -25 -62 -24 -149 0
-83 5 -111 27 -167 73 -189 220 -314 380 -326 88 -6 141 14 199 76 105 113
103 325 -5 494 -107 169 -288 258 -428 213z"/>
<path d="M6122 4915 c-168 -354 -382 -551 -692 -635 -133 -36 -170 -51 -265
-110 -116 -71 -215 -152 -318 -259 -126 -132 -208 -243 -352 -480 -4 -8 22 9
59 37 192 145 489 244 639 213 103 -22 147 -80 147 -193 0 -132 -56 -277 -159
-415 -116 -156 -215 -242 -468 -409 -95 -63 -173 -117 -173 -120 0 -7 340 166
445 227 50 28 106 61 125 72 228 129 529 355 671 503 126 133 178 223 229 399
78 268 157 884 148 1150 l-3 90 -33 -70z"/>
<path d="M2670 4860 c-98 -46 -151 -129 -158 -252 -5 -89 9 -159 49 -243 81
-170 226 -278 375 -278 34 0 70 6 80 12 17 11 16 12 -8 7 -24 -5 -26 -4 -21
16 3 13 5 40 5 60 0 21 4 36 8 33 5 -3 7 12 5 32 -4 32 -3 34 4 13 8 -21 9
-17 9 25 1 94 2 105 10 105 5 0 7 11 4 25 -2 14 0 25 6 25 7 0 8 14 5 37 -4
23 -3 34 4 30 6 -4 8 4 5 20 -3 17 -1 24 6 19 7 -4 10 7 9 34 -1 25 4 44 12
49 11 7 11 9 0 14 -11 3 -11 7 -2 17 9 10 18 0 42 -41 17 -30 31 -49 31 -42 0
24 -73 133 -122 183 -104 104 -258 147 -358 100z"/>
<path d="M3060 4125 c-14 -8 -20 -14 -14 -15 5 0 19 7 30 15 24 18 16 19 -16
0z"/>
<path d="M3327 4110 c-144 -19 -257 -93 -322 -211 -28 -50 -30 -62 -29 -149 0
-74 5 -108 23 -153 87 -221 385 -489 848 -763 42 -24 77 -43 79 -41 2 2 -26
22 -62 45 -41 26 -63 46 -58 54 4 7 3 8 -4 4 -8 -5 -11 3 -8 24 2 22 0 30 -9
26 -9 -3 -11 2 -8 15 7 25 20 33 29 18 5 -8 2 -10 -7 -5 -8 4 -5 1 5 -6 11 -7
26 -20 35 -28 63 -60 111 -102 111 -98 0 2 -38 43 -83 89 -179 182 -277 383
-277 565 0 92 28 138 109 179 29 15 53 17 145 12 61 -3 122 -8 136 -11 14 -3
1 2 -29 12 -50 16 -80 42 -49 42 10 0 9 3 -2 10 -11 7 -17 4 -22 -13 -3 -12
-6 33 -7 99 -1 89 2 123 12 127 8 3 12 -9 11 -42 l-1 -46 4 43 c2 23 8 42 12
42 4 0 41 -23 82 -51 41 -27 61 -39 44 -24 -192 166 -489 265 -708 235z"/>
<path d="M4269 3643 c23 -34 28 -79 9 -85 -6 -2 14 -21 45 -41 31 -21 59 -42
62 -47 3 -6 15 -15 27 -21 24 -13 24 -12 -33 71 -21 30 -59 78 -84 105 -30 32
-39 39 -26 18z"/>
<path d="M4070 3646 c0 -2 7 -7 16 -10 8 -3 12 -2 9 4 -6 10 -25 14 -25 6z"/>
<path d="M4386 3285 c15 -36 18 -160 6 -228 l-7 -39 -106 131 -107 130 -7
-137 c-8 -161 -10 -172 -36 -172 -12 0 -23 -10 -29 -26 -16 -40 -13 -44 30
-44 l40 0 1 93 c0 50 4 100 7 110 6 14 29 -4 122 -98 93 -94 116 -112 122 -98
3 10 7 83 7 163 1 133 -1 149 -24 198 -27 58 -42 72 -19 17z m-136 -150 c0 -8
-6 -15 -14 -15 -17 0 -28 14 -19 24 12 12 33 6 33 -9z m63 -57 c6 -19 -3 -38
-18 -38 -18 0 -28 17 -21 35 7 18 33 20 39 3z m57 -83 c0 -8 -9 -15 -20 -15
-11 0 -20 7 -20 15 0 8 9 15 20 15 11 0 20 -7 20 -15z"/>
<path d="M4751 3247 c-17 -51 -117 -137 -161 -137 -6 0 -10 31 -10 81 0 79 0
80 -22 73 -13 -3 -24 -7 -25 -8 -1 -1 -5 -84 -9 -185 l-7 -182 34 3 34 3 -4
94 c-2 55 1 91 6 88 5 -3 36 -49 68 -101 33 -53 62 -96 65 -96 3 0 17 8 32 18
l27 18 -74 79 c-41 44 -74 83 -75 87 0 4 23 19 51 34 51 28 78 65 93 126 9 39
-11 44 -23 5z"/>
<path d="M4677 3074 c-8 -8 1 -24 14 -24 5 0 9 7 9 15 0 15 -12 20 -23 9z"/>
<path d="M4710 3025 c0 -8 5 -15 10 -15 6 0 10 7 10 15 0 8 -4 15 -10 15 -5 0
-10 -7 -10 -15z"/>
<path d="M4747 2994 c-8 -8 1 -24 14 -24 5 0 9 7 9 15 0 15 -12 20 -23 9z"/>
<path d="M4780 2945 c0 -9 5 -15 11 -13 6 2 11 8 11 13 0 5 -5 11 -11 13 -6 2
-11 -4 -11 -13z"/>
<path d="M3960 2836 c0 -2 8 -10 18 -17 15 -13 16 -12 3 4 -13 16 -21 21 -21
13z"/>
<path d="M4014 2791 c7 -11 46 -35 46 -28 0 3 -12 12 -26 22 -15 9 -23 12 -20
6z"/>
<path d="M4314 2585 c32 -20 60 -34 63 -32 6 6 -94 67 -110 67 -6 0 14 -16 47
-35z"/>
<path d="M3960 2409 c-135 -7 -190 -15 -190 -30 0 -5 10 -11 23 -14 98 -25
569 -28 731 -4 l89 12 -44 13 c-75 23 -393 35 -609 23z"/>
<path d="M3791 2169 c-27 -26 -78 -104 -116 -178 l-27 -55 -42 80 c-29 57 -48
81 -67 88 -90 31 -208 -79 -137 -128 26 -18 58 -5 58 25 0 16 -5 18 -25 13
-18 -4 -27 -1 -32 12 -8 22 41 66 71 62 20 -3 21 -7 19 -126 -2 -137 -13 -171
-57 -187 -24 -8 -31 -6 -47 14 -17 20 -20 21 -25 6 -9 -21 11 -35 51 -35 74 0
103 46 104 168 1 39 5 72 9 72 4 0 24 -34 45 -75 20 -41 42 -75 49 -75 7 0 28
34 47 75 18 41 36 75 40 75 4 0 12 -49 18 -109 6 -60 14 -114 17 -120 9 -14
66 -14 86 -1 13 8 13 10 -1 10 -18 0 -21 13 -40 218 -10 110 -9 125 6 148 14
21 22 25 46 20 22 -4 29 -2 29 9 0 23 -53 18 -79 -6z"/>
<path d="M4835 2111 c-3 -6 -2 -11 4 -11 7 0 12 -61 13 -167 l3 -168 30 0 30
0 0 175 0 175 -37 3 c-20 2 -39 -2 -43 -7z"/>
<path d="M4538 2008 c4 -28 3 -30 -14 -23 -11 5 -38 10 -61 13 -37 3 -47 0
-74 -27 -28 -28 -31 -37 -26 -73 3 -22 12 -48 21 -56 13 -13 13 -18 -2 -39
-13 -21 -13 -29 -3 -45 10 -16 10 -23 -3 -37 -39 -43 -8 -71 81 -71 76 0 123
27 123 70 0 37 -25 52 -105 59 -48 5 -60 10 -63 24 -3 16 1 18 26 12 37 -8 96
15 112 44 6 12 10 45 9 74 0 28 2 64 6 80 6 23 4 27 -12 27 -16 0 -19 -5 -15
-32z m-50 -94 c2 -45 -1 -64 -13 -74 -25 -21 -45 5 -45 60 0 64 8 82 34 78 18
-3 21 -11 24 -64z m16 -194 c33 -12 33 -34 1 -48 -66 -30 -144 5 -103 46 14
14 67 16 102 2z"/>
<path d="M3899 1979 c-25 -25 -21 -53 9 -57 23 -3 32 21 12 33 -16 10 -11 22
11 28 28 8 47 -1 54 -24 9 -26 -8 -45 -61 -69 -53 -23 -71 -58 -52 -98 16 -32
58 -41 93 -18 20 13 25 13 35 1 17 -20 54 -19 71 2 8 9 9 14 2 10 -8 -5 -12
19 -15 84 -3 81 -6 93 -27 110 -33 27 -104 26 -132 -2z m91 -128 c0 -41 -20
-67 -45 -57 -18 7 -20 67 -3 84 7 7 20 12 30 12 14 0 18 -8 18 -39z"/>
<path d="M4110 1990 c-10 -6 -11 -10 -2 -10 9 0 12 -26 12 -94 0 -114 4 -126
40 -126 l29 0 3 98 c4 120 -2 142 -39 142 -16 0 -35 -5 -43 -10z"/>
<path d="M4219 1979 l-24 -20 22 6 c19 5 25 1 34 -22 15 -40 6 -166 -15 -198
l-17 -25 33 13 c50 20 73 68 73 153 0 57 -4 76 -19 93 -24 27 -57 27 -87 0z"/>
<path d="M4629 1979 c-25 -25 -21 -53 9 -57 23 -3 32 21 12 33 -16 10 -11 22
11 28 28 8 47 -1 54 -24 9 -26 -8 -45 -61 -69 -53 -23 -71 -58 -52 -98 16 -32
58 -41 93 -18 20 13 25 13 35 1 17 -20 54 -19 71 2 8 9 9 14 2 10 -8 -5 -12
19 -15 84 -3 81 -6 93 -27 110 -33 27 -104 26 -132 -2z m91 -128 c0 -41 -20
-67 -45 -57 -18 7 -20 67 -3 84 7 7 20 12 30 12 14 0 18 -8 18 -39z"/>
<path d="M4999 1979 c-25 -25 -21 -53 9 -57 23 -3 32 21 12 33 -16 10 -11 22
11 28 28 8 47 -1 54 -24 9 -26 -8 -45 -61 -69 -53 -23 -71 -58 -52 -98 16 -32
58 -41 93 -18 20 13 25 13 35 1 17 -20 54 -19 71 2 8 9 9 14 2 10 -8 -5 -12
19 -15 84 -3 81 -6 93 -27 110 -33 27 -104 26 -132 -2z m91 -128 c0 -41 -20
-67 -45 -57 -18 7 -20 67 -3 84 7 7 20 12 30 12 14 0 18 -8 18 -39z"/>
<path d="M5210 1990 c-10 -6 -11 -10 -2 -10 9 0 12 -26 12 -94 0 -115 4 -126
41 -126 l29 0 0 88 c0 77 3 91 20 107 31 28 39 10 42 -95 l3 -95 30 0 30 0 3
90 c2 70 6 93 19 103 9 6 20 12 25 12 4 0 8 -39 8 -86 0 -47 5 -94 10 -105 13
-23 48 -25 76 -4 17 13 17 14 2 15 -16 0 -18 11 -18 93 0 59 -4 97 -12 105
-18 18 -52 14 -81 -8 l-26 -21 -11 21 c-14 26 -53 26 -90 0 -28 -20 -28 -20
-33 0 -6 22 -50 28 -77 10z"/>
</g>
</svg>
